:SAMPLES-PER-SECOND 30
:FULLY-SPECIFIED
:DEGREES
286
root  -2.70628 40.8994 1.5855 175.531 -79.6814 -178.312
RightUpLeg  4.86485 -1.6097 -2.62078
RightLeg  -0.386576 -9.33985 -0.534276
RightFoot  -0.202311 -0.48186 4.74836
RightToes  -3.13006e-008 1.75238e-005 3.56266e-009
Spine  -11.6425 0.169107 3.17532
Spine1  20.3809 -0.0864359 -0.950709
HEad  -7.97676 17.5345 5.82771
LeftShoulder1  2.7089 -5.69483 -23.1949
LeftArm  -43.5423 -15.3793 -41.5682
LeftForeArm  103.793 -79.278 -45.8119
LeftHand  0.668834 -4.26025 -7.49692
RightShoulder  3.45714 8.00338 23.8988
RightArm  -2.41481 26.9163 45.9664
RightForeArm  137.764 75.8291 135.774
RightHand  0.904669 6.34364 8.59704
LeftUpLeg  7.14227 1.45416 0.816216
LeftLeg  -1.52669 22.7769 -1.01582
LeftFoot  -2.0639 0.161058 -2.13977
LeftToes  4.76866e-008 1.46233e-008 1.30548e-009
287
root  -2.69956 40.9016 1.59503 175.575 -79.1859 -178.153
RightUpLeg  4.5624 -1.57567 -2.60098
RightLeg  -0.400945 -8.89655 -0.494418
RightFoot  -0.107706 -0.482903 4.77228
RightToes  -3.13006e-008 1.75238e-005 3.56266e-009
Spine  -11.2292 0.109838 3.20323
Spine1  19.6698 -0.0851499 -1.11373
HEad  -8.91074 19.4852 5.3557
LeftShoulder1  2.75838 -5.86331 -23.1902
LeftArm  -41.6608 -10.8205 -40.1954
LeftForeArm  117.571 -80.9421 -57.9902
LeftHand  1.71952 -7.34139 -15.2889
RightShoulder  3.38011 7.90536 23.4567
RightArm  -6.99677 29.3694 46.3664
RightForeArm  139.245 76.2343 134.736
RightHand  0.544707 6.50891 4.93807
LeftUpLeg  7.01988 1.40575 0.801052
LeftLeg  -1.66661 23.2888 -1.04753
LeftFoot  -2.00391 0.161879 -2.15766
LeftToes  4.76866e-008 1.46233e-008 1.30548e-009
288
root  -2.71003 40.9031 1.60825 175.598 -78.6308 -178.018
RightUpLeg  4.36478 -1.47414 -2.54746
RightLeg  -0.49811 -8.46937 -0.506892
RightFoot  -0.0046725 -0.479624 4.73284
RightToes  -3.13006e-008 1.75238e-005 3.56266e-009
Spine  -10.6759 0.0933742 3.20915
Spine1  18.7332 -0.00554639 -1.3857
HEad  -10.2606 21.1069 5.18151
LeftShoulder1  2.90884 -6.13063 -23.9793
LeftArm  -41.1179 -5.5208 -39.915
LeftForeArm  132.207 -81.9581 -79.927
LeftHand  2.37733 -8.1618 -19.7397
RightShoulder  3.24952 7.66606 22.8901
RightArm  -11.9266 30.7627 46.4169
RightForeArm  138.413 77.2646 130.684
RightHand  0.240233 6.64147 1.98519
LeftUpLeg  6.99173 1.42419 0.802675
LeftLeg  -1.82216 23.828 -1.12739
LeftFoot  -1.98865 0.162348 -2.16979
LeftToes  4.76866e-008 1.46233e-008 1.30548e-009
289
root  -2.73395 40.9028 1.62541 175.416 -78.137 -177.644
RightUpLeg  4.17979 -1.31866 -2.43321
RightLeg  -0.613716 -8.19902 -0.538831
RightFoot  0.094183 -0.48099 4.76969
RightToes  -3.13006e-008 1.75238e-005 3.56266e-009
Spine  -10.3414 0.0868804 3.49581
Spine1  18.1561 0.192192 -2.08922
HEad  -11.6801 22.6563 5.30543
LeftShoulder1  3.04955 -6.25667 -25.0783
LeftArm  -42.1931 -0.0438349 -40.6049
LeftForeArm  147.749 -81.2997 -107.236
LeftHand  2.52248 -8.10485 -21.0236
RightShoulder  3.1164 7.32579 22.5603
RightArm  -17.0702 31.0802 45.6476
RightForeArm  135.506 78.4645 124.34
RightHand  -0.0414894 7.19187 -0.760289
LeftUpLeg  6.90696 1.43184 0.83135
LeftLeg  -1.89476 24.2983 -1.14773
LeftFoot  -2.03714 0.162404 -2.17522
LeftToes  4.76866e-008 1.46233e-008 1.30548e-009
290
root  -2.7632 40.8994 1.64197 175.533 -77.6803 -177.666
RightUpLeg  4.04451 -1.28407 -2.44418
RightLeg  -0.605031 -7.77331 -0.557337
RightFoot  0.0945854 -0.475329 4.70199
RightToes  -3.13006e-008 1.75238e-005 3.56266e-009
Spine  -10.2492 0.16056 3.85672
Spine1  18.0544 0.581502 -3.11343
HEad  -13.1837 23.5425 5.61656
LeftShoulder1  3.19774 -6.40381 -26.1603
LeftArm  -44.8814 4.92201 -42.5035
LeftForeArm  156.305 -78.8187 -128.373
LeftHand  2.2907 -7.09178 -20.6778
RightShoulder  3.10008 7.16335 22.864
RightArm  -22.2469 29.9936 43.7332
RightForeArm  131.584 79.3507 117.783
RightHand  -0.284159 6.47265 -3.11857
LeftUpLeg  6.96162 1.3969 0.767745
LeftLeg  -2.05702 24.7904 -1.20413
LeftFoot  -2.03068 0.159057 -2.12742
LeftToes  4.76866e-008 1.46233e-008 1.30548e-009
291
root  -2.80591 40.8963 1.65174 175.45 -77.4381 -177.494
RightUpLeg  4.0149 -1.2583 -2.43275
RightLeg  -0.663603 -7.54127 -0.537966
RightFoot  0.0593356 -0.475721 4.73324
RightToes  -3.13006e-008 1.75238e-005 3.56266e-009
Spine  -10.0614 0.226018 3.87
Spine1  17.8778 0.840789 -3.67587
HEad  -14.904 24.2623 5.86776
LeftShoulder1  3.21826 -6.20438 -27.065
LeftArm  -48.6144 9.25728 -45.4609
LeftForeArm  158.608 -75.1314 -141.961
LeftHand  2.04555 -6.89136 -18.7702
RightShoulder  2.99833 6.7153 23.1597
RightArm  -26.8794 27.6358 41.3986
RightForeArm  129.5 79.8369 113.406
RightHand  -0.261243 5.74343 -3.04219
LeftUpLeg  6.96706 1.43392 0.789093
LeftLeg  -2.06793 25.0095 -1.22925
LeftFoot  -2.1259 0.160516 -2.15406
LeftToes  4.76866e-008 1.46233e-008 1.30548e-009
292
root  -2.84205 40.8961 1.65164 175.318 -77.3576 -177.28
RightUpLeg  3.95682 -1.18862 -2.37052
RightLeg  -0.624642 -7.51626 -0.572106
RightFoot  0.0393461 -0.474554 4.74566
RightToes  -3.13006e-008 1.75238e-005 3.56266e-009
Spine  -9.64665 0.368952 3.61293
Spine1  17.4079 1.06608 -3.79364
HEad  -16.2814 24.4257 5.60217
LeftShoulder1  3.26128 -6.05767 -28.0465
LeftArm  -53.1988 13.0075 -48.3116
LeftForeArm  156.943 -70.924 -150.23
LeftHand  1.85853 -6.58822 -17.4991
RightShoulder  3.04565 6.70765 23.6749
RightArm  -30.8879 23.295 38.4341
RightForeArm  128.603 80.0723 111.032
RightHand  -0.278702 5.80177 -3.21205
LeftUpLeg  6.93332 1.42257 0.804146
LeftLeg  -2.02834 25.0938 -1.17176
LeftFoot  -2.18052 0.164551 -2.22043
LeftToes  4.76866e-008 1.46233e-008 1.30548e-009
